<svg xmlns="http://www.w3.org/2000/svg" xmlns:xlink="http://www.w3.org/1999/xlink" viewBox="0 0 25.4 25.4" height="96" width="96"><defs><linearGradient id="b"><stop offset="0" style="stop-color:navy;stop-opacity:1"/><stop offset="1" style="stop-color:#000050;stop-opacity:1"/></linearGradient><linearGradient id="a"><stop offset="0" style="stop-color:#000030;stop-opacity:1"/><stop offset="1" style="stop-color:#000;stop-opacity:1"/></linearGradient><linearGradient gradientUnits="userSpaceOnUse" y2="295.536" x2="-14.657" y1="278.137" x1="-32.056" id="c" xlink:href="#b"/><linearGradient y2="212.863" x2="-97.631" y1="233.5" x1="-97.631" gradientUnits="userSpaceOnUse" id="d" xlink:href="#a"/></defs><g transform="matrix(.28571 0 0 .28571 0 -54.014)"><rect style="fill:#000040;fill-opacity:1;stroke:none;stroke-width:1.5;stroke-linecap:round;stroke-linejoin:round;stroke-miterlimit:4;stroke-dasharray:none;stroke-opacity:1" width="88.9" height="3.969" y="261.281" ry="0"/><rect style="fill:#000070;fill-opacity:1;stroke:none;stroke-width:.5291667;stroke-linecap:round;stroke-linejoin:round;stroke-miterlimit:4;stroke-dasharray:none;stroke-opacity:1" width="88.9" height="3.969" y="201.75" ry="0"/><g style="fill:#000020;fill-opacity:1;stroke:#ffcf00;stroke-width:.5291667;stroke-miterlimit:4;stroke-dasharray:none;stroke-opacity:1"><path style="fill:#000020;fill-opacity:1;stroke:#ffcf00;stroke-width:.5291667;stroke-linecap:round;stroke-linejoin:round;stroke-miterlimit:4;stroke-dasharray:none;stroke-opacity:1" d="M88.106 220.8a12.7 12.7 0 0 1 12.7 12.7 12.7 12.7 0 0 1-12.7 12.7 12.7 12.7 0 0 1-12.7-12.7 12.7 12.7 0 0 1 12.7-12.7zm0 6.35a6.35 6.35 0 0 0-6.35 6.35 6.35 6.35 0 0 0 6.35 6.35 6.35 6.35 0 0 0 6.35-6.35 6.35 6.35 0 0 0-6.35-6.35z" transform="translate(-71.673 5.956)"/><path d="M-100.806 233.287v-24.974c0-.118.095-.213.213-.213h5.924c.118 0 .213.095.213.213v24.974" style="fill:#000020;fill-opacity:1;stroke:#ffcf00;stroke-width:.5291667;stroke-linecap:round;stroke-linejoin:round;stroke-miterlimit:4;stroke-dasharray:none;stroke-opacity:1" transform="matrix(-1 0 0 1 -71.673 5.956)"/></g><g style="fill:#000050;fill-opacity:1;stroke:#ffcf00;stroke-width:.5291667;stroke-miterlimit:4;stroke-dasharray:none;stroke-opacity:1"><g style="fill:#000050;fill-opacity:1;stroke:#ffcf00;stroke-width:.5291667;stroke-miterlimit:4;stroke-dasharray:none;stroke-opacity:1"><path style="fill:#000050;fill-opacity:1;stroke:#ffcf00;stroke-width:2;stroke-linecap:round;stroke-linejoin:round;stroke-miterlimit:4;stroke-dasharray:none;stroke-opacity:1" d="M-153 396v66h48v48h96v-24h-72v-48h-48v-42z" transform="scale(-.26458 .26458) rotate(-45 376.425 870.508)"/></g><g style="fill:#000050;fill-opacity:1;stroke:#ffcf00;stroke-width:.5291667;stroke-miterlimit:4;stroke-dasharray:none;stroke-opacity:1"><path d="M-37.042 269.126v17.463h12.7v12.7h25.4v-6.35h-19.05v-12.7h-12.7v-11.113z" style="fill:url(#c);fill-opacity:1;stroke:#ffcf00;stroke-width:.5291667;stroke-linecap:round;stroke-linejoin:round;stroke-miterlimit:4;stroke-dasharray:none;stroke-opacity:1" transform="scale(-1 1) rotate(-45 -97.074 316.65)"/></g></g><g style="stroke:#ffcf00;stroke-width:.5291667;stroke-miterlimit:4;stroke-dasharray:none;stroke-opacity:1"><path style="fill:#000030;fill-opacity:1;stroke:#ffcf00;stroke-width:.5291667;stroke-linecap:round;stroke-linejoin:round;stroke-miterlimit:4;stroke-dasharray:none;stroke-opacity:1" d="M88.106 220.8a12.7 12.7 0 0 1 12.7 12.7 12.7 12.7 0 0 1-12.7 12.7 12.7 12.7 0 0 1-12.7-12.7 12.7 12.7 0 0 1 12.7-12.7zm0 6.35a6.35 6.35 0 0 0-6.35 6.35 6.35 6.35 0 0 0 6.35 6.35 6.35 6.35 0 0 0 6.35-6.35 6.35 6.35 0 0 0-6.35-6.35z" transform="translate(-52.636 5.974)"/><path d="M-100.806 233.287v-24.974c0-.118.095-.213.213-.213h5.924c.118 0 .213.095.213.213v24.974" style="fill:url(#d);fill-opacity:1;stroke:#ffcf00;stroke-width:.5291667;stroke-linecap:round;stroke-linejoin:round;stroke-miterlimit:4;stroke-dasharray:none;stroke-opacity:1" transform="matrix(-1 0 0 1 -52.636 5.974)"/></g><path style="fill:#fd0;fill-opacity:1;stroke:none;stroke-width:.13403057;stroke-linecap:round;stroke-linejoin:round;stroke-miterlimit:4;stroke-dasharray:none;stroke-opacity:1" d="m64.864 237.11.315.639.704.102-.51.497.12.702-.63-.332-.63.332.12-.702-.51-.497.706-.102zM66.034 239.61l.237.48.528.077-.382.372.09.527-.473-.249-.473.249.09-.527-.382-.372.529-.077zM58.183 244.27l.237.48.528.076-.382.373.09.526-.473-.248-.472.248.09-.526-.382-.373.528-.077zM63.726 241.345l.158.319.352.051-.255.248.06.351-.315-.165-.315.165.06-.35-.255-.249.353-.051zM60.185 240.1l.315.639.705.102-.51.497.12.702-.63-.332-.63.332.12-.702-.51-.497.705-.102zM62.42 237.819l.157.32.353.05-.255.249.06.35-.315-.165-.315.166.06-.351-.255-.249.352-.05zM67.64 237.561l.236.479.529.077-.383.372.09.527-.472-.249-.473.249.09-.527-.382-.372.529-.077zM53.81 241.672l.158.32.352.05-.255.249.06.35-.315-.165-.315.166.06-.351-.254-.249.352-.05zM66.743 236.317l.157.319.353.051-.255.248.06.351-.315-.165-.315.165.06-.35-.255-.249.352-.051zM65.24 235.385l.158.319.352.051-.255.249.06.35-.315-.165-.315.165.06-.35-.254-.249.352-.051zM62.814 239.57l.236.479.529.076-.383.373.09.527-.472-.249-.473.249.09-.527-.382-.373.528-.076z" transform="translate(18.482 2.226)"/><path style="fill:#fd0;fill-opacity:1;stroke:none;stroke-width:.13403057;stroke-linecap:round;stroke-linejoin:round;stroke-miterlimit:4;stroke-dasharray:none;stroke-opacity:1" d="m53.81 241.672.158.32.352.05-.255.249.06.35-.315-.165-.315.166.06-.351-.254-.249.352-.05z" transform="translate(18.482 2.226)"/></g></svg>